<svg xmlns="http://www.w3.org/2000/svg" xmlns:xlink="http://www.w3.org/1999/xlink" xmlns:lucid="lucid" width="894.75" height="982"><g transform="translate(1121 1121)" lucid:page-tab-id="0_0"><path d="M-1500-1500H0V0h-1500z" fill="#fff"/><path d="M-1060-979.07V-1012a8 8 0 0 1 8-8h372v40.93zM-680-1020h392a8 8 0 0 1 8 8v32.93h-400z" stroke="#b2b2b2" stroke-width="2" fill="#6f7681"/><path d="M-680-160h-372a8 8 0 0 1-8-8v-811.07h380zM-280-979.07V-168a8 8 0 0 1-8 8h-392v-819.07z" stroke="#b2b2b2" stroke-width="2" fill="none"/><use xlink:href="#a" transform="matrix(1,0,0,1,-1060,-1020) translate(156.50595894178142 24.821811749447562)"/><use xlink:href="#b" transform="matrix(1,0,0,1,-680,-1020) translate(113.77385308220249 24.821811749447562)"/><use xlink:href="#c" transform="matrix(1,0,0,1,-680,-1020) translate(235.92506016728282 24.821811749447562)"/><path d="M-852.8-923.52c0 9.1-7.7 16.48-17.2 16.48s-17.2-7.38-17.2-16.48c0-9.1 7.7-16.48 17.2-16.48s17.2 7.38 17.2 16.48z" stroke="#000"/><path d="M-789.5-820h213.12" stroke="#333" fill="none"/><path d="M-789.5-819.52h-.5v-.96h.5z" stroke="#333" stroke-width=".05" fill="#333"/><path d="M-561.62-820l-14.26 4.63v-9.26z" stroke="#333" fill="#333"/><path d="M-544-693.1c-8.84 0-16 7.15-16 16v48c0 8.82 7.16 16 16 16h128c8.84 0 16-7.18 16-16v-48c0-8.85-7.16-16-16-16z" stroke="#000" stroke-opacity="0" fill="#259b9c"/><use xlink:href="#d" transform="matrix(1,0,0,1,-552,-685.1128162795062) translate(25.135802469135797 24.888888888888886)"/><use xlink:href="#e" transform="matrix(1,0,0,1,-552,-685.1128162795062) translate(105.08641975308643 24.888888888888886)"/><use xlink:href="#f" transform="matrix(1,0,0,1,-552,-685.1128162795062) translate(2.7407407407407334 46.22222222222222)"/><use xlink:href="#g" transform="matrix(1,0,0,1,-552,-685.1128162795062) translate(74.74074074074073 46.22222222222222)"/><path d="M-934-693.1c-8.84 0-16 7.15-16 16v48c0 8.82 7.16 16 16 16h128c8.84 0 16-7.18 16-16v-48c0-8.85-7.16-16-16-16z" stroke="#000" stroke-opacity="0" fill="#259b9c"/><use xlink:href="#h" transform="matrix(1,0,0,1,-942,-685.1128162795062) translate(14.024691358024683 24.888888888888886)"/><use xlink:href="#i" transform="matrix(1,0,0,1,-942,-685.1128162795062) translate(98.46913580246914 24.888888888888886)"/><use xlink:href="#j" transform="matrix(1,0,0,1,-942,-685.1128162795062) translate(38.46913580246913 46.22222222222222)"/><path d="M-870-906.04v29.66" stroke="#333" fill="none"/><path d="M-870-906.54l.48-.06v.58h-.96v-.58z" stroke="#333" stroke-width=".05" fill="#333"/><path d="M-870-861.62l-4.63-14.26h9.26z" stroke="#333" fill="#333"/><path d="M-1100-1092a8 8 0 0 1 8-8h836.75a8 8 0 0 1 8 8v25.15a8 8 0 0 1-8 8H-1092a8 8 0 0 1-8-8z" stroke="#000" stroke-opacity="0" stroke-width="2" fill="#fff" fill-opacity="0"/><use xlink:href="#k" transform="matrix(1,0,0,1,-1096,-1096) translate(319.7192592592593 25.782777777777778)"/><use xlink:href="#l" transform="matrix(1,0,0,1,-1096,-1096) translate(437.4279012345679 25.782777777777778)"/><path d="M-909.56-1060.2h480.15M-909.53-1060.2h-1.03M-429.44-1060.2h1.03" stroke="#a9afb8" stroke-width="2" fill="none"/><path d="M-480-779.5v70" stroke="#3a414a" fill="none"/><path d="M-479.52-779.5h-.96v-.5h.96z" stroke="#3a414a" stroke-width=".05" fill="#3a414a"/><path d="M-480-694.73l-4.63-14.27h9.26z" stroke="#3a414a" fill="#3a414a"/><path d="M-560.5-653.1h-213.12" stroke="#3a414a" fill="none"/><path d="M-560-652.64h-.5v-.95h.5z" stroke="#3a414a" stroke-width=".05" fill="#3a414a"/><path d="M-788.38-653.1l14.26-4.65v9.27z" stroke="#3a414a" fill="#3a414a"/><path d="M-934-526.23c-8.84 0-16 7.17-16 16v48c0 8.84 7.16 16 16 16h128c8.84 0 16-7.16 16-16v-48c0-8.83-7.16-16-16-16z" stroke="#000" stroke-opacity="0" fill="#259b9c"/><use xlink:href="#m" transform="matrix(1,0,0,1,-942,-518.2256325590124) translate(30.666666666666664 24.888888888888886)"/><use xlink:href="#n" transform="matrix(1,0,0,1,-942,-518.2256325590124) translate(105.53086419753086 24.888888888888886)"/><use xlink:href="#j" transform="matrix(1,0,0,1,-942,-518.2256325590124) translate(38.46913580246913 46.22222222222222)"/><path d="M-870-612.6v70" stroke="#3a414a" fill="none"/><path d="M-869.52-612.6h-.96v-.5h.96z" stroke="#3a414a" stroke-width=".05" fill="#3a414a"/><path d="M-870-527.84l-4.63-14.27h9.26z" stroke="#3a414a" fill="#3a414a"/><path d="M-544-526.23c-8.84 0-16 7.17-16 16v48c0 8.84 7.16 16 16 16h128c8.84 0 16-7.16 16-16v-48c0-8.83-7.16-16-16-16z" stroke="#000" stroke-opacity="0" fill="#259b9c"/><use xlink:href="#o" transform="matrix(1,0,0,1,-552,-518.2256325590124) translate(29.086419753086417 24.888888888888886)"/><use xlink:href="#p" transform="matrix(1,0,0,1,-552,-518.2256325590124) translate(83.40740740740742 24.888888888888886)"/><use xlink:href="#q" transform="matrix(1,0,0,1,-552,-518.2256325590124) translate(38.46913580246913 46.22222222222222)"/><path d="M-789.5-486.23h213.12" stroke="#3a414a" fill="none"/><path d="M-789.5-485.75h-.5v-.95h.5z" stroke="#3a414a" stroke-width=".05" fill="#3a414a"/><path d="M-561.62-486.23l-14.26 4.64v-9.26z" stroke="#3a414a" fill="#3a414a"/><path d="M-950.5-653.1H-984a6 6 0 0 1-6-6V-814a6 6 0 0 1 6-6h17.62" stroke="#3a414a" fill="none"/><path d="M-950-652.64h-.5v-.95h.5z" stroke="#3a414a" stroke-width=".05" fill="#3a414a"/><path d="M-951.62-820l-14.26 4.63v-9.26z" stroke="#3a414a" fill="#3a414a"/><path d="M-544-359.34c-8.84 0-16 7.16-16 16v48c0 8.84 7.16 16 16 16h128c8.84 0 16-7.16 16-16v-48c0-8.84-7.16-16-16-16z" stroke="#000" stroke-opacity="0" fill="#259b9c"/><use xlink:href="#r" transform="matrix(1,0,0,1,-552,-351.3384488385186) translate(13.802469135802468 24.888888888888886)"/><use xlink:href="#s" transform="matrix(1,0,0,1,-552,-351.3384488385186) translate(63.135802469135804 24.888888888888886)"/><use xlink:href="#t" transform="matrix(1,0,0,1,-552,-351.3384488385186) translate(45.382716049382715 46.22222222222222)"/><use xlink:href="#u" transform="matrix(1,0,0,1,-552,-351.3384488385186) translate(73.97530864197532 46.22222222222222)"/><path d="M-480-445.73v70" stroke="#3a414a" fill="none"/><path d="M-479.52-445.7h-.96v-.53h.96z" stroke="#3a414a" stroke-width=".05" fill="#3a414a"/><path d="M-480-360.96l-4.63-14.26h9.26z" stroke="#3a414a" fill="#3a414a"/><path d="M-462.8-224.1c0 8.8-7.7 15.92-17.2 15.92s-17.2-7.13-17.2-15.9c0-8.8 7.7-15.92 17.2-15.92s17.2 7.12 17.2 15.9z" stroke="#000" fill-opacity="0"/><path d="M-469.67-224.1c0 5.28-4.63 9.55-10.33 9.55s-10.33-4.27-10.33-9.54c0-5.26 4.63-9.54 10.33-9.54s10.33 4.28 10.33 9.55z" stroke="#000"/><path d="M-480-278.84v21.95" stroke="#3a414a" fill="none"/><path d="M-479.52-278.83h-.96v-.5h.96z" stroke="#3a414a" stroke-width=".05" fill="#3a414a"/><path d="M-480-242.12l-4.63-14.27h9.26z" stroke="#3a414a" fill="#3a414a"/><path d="M-544-860c-8.84 0-16 7.16-16 16v48c0 8.84 7.16 16 16 16h128c8.84 0 16-7.16 16-16v-48c0-8.84-7.16-16-16-16z" stroke="#000" stroke-opacity="0" fill="#259b9c"/><g><use xlink:href="#v" transform="matrix(1,0,0,1,-552,-852) translate(15.333333333333329 24.888888888888886)"/><use xlink:href="#w" transform="matrix(1,0,0,1,-552,-852) translate(64.2716049382716 24.888888888888886)"/><use xlink:href="#x" transform="matrix(1,0,0,1,-552,-852) translate(5.87654320987653 46.22222222222222)"/><use xlink:href="#y" transform="matrix(1,0,0,1,-552,-852) translate(92.79012345679013 46.22222222222222)"/><use xlink:href="#z" transform="matrix(1,0,0,1,-552,-852) translate(111.50617283950618 46.22222222222222)"/></g><path d="M-934-860c-8.84 0-16 7.16-16 16v48c0 8.84 7.16 16 16 16h128c8.84 0 16-7.16 16-16v-48c0-8.84-7.16-16-16-16z" stroke="#000" stroke-opacity="0" fill="#259b9c"/><g><use xlink:href="#A" transform="matrix(1,0,0,1,-942,-852) translate(2.419753086419746 24.888888888888886)"/><use xlink:href="#B" transform="matrix(1,0,0,1,-942,-852) translate(90.2716049382716 24.888888888888886)"/><use xlink:href="#z" transform="matrix(1,0,0,1,-942,-852) translate(58.691358024691354 46.22222222222222)"/></g><defs><path fill="#fff" d="M76-105c-23 59 45 89 88 55 12-10 18-24 22-45l30-153h51C238-143 259 4 118 4 48 4 11-39 25-112l26-136h52" id="C"/><path fill="#fff" d="M72-63c-8 23 5 39 32 30L98-1C54 14 12-6 23-64l18-93H15l7-33h28l24-45h31l-8 45h35l-6 33H90" id="D"/><path fill="#fff" d="M114-194c63-2 87 48 72 110H63c-3 28 1 55 31 54 21-1 32-13 37-29l44 13C160-14 137 4 91 4 41 4 11-22 11-73c0-71 33-119 103-121zm30 77c14-47-50-61-67-22-3 6-6 13-8 22h75" id="E"/><path fill="#fff" d="M151-194c95 0 34 128 28 194h-49l25-134c0-29-45-25-59-9C67-111 69-48 56 0H6l36-190h47l-4 32c15-20 33-36 66-36" id="F"/><g id="a"><use transform="matrix(0.060025163186771674,0,0,0.060025163186771674,0,0)" xlink:href="#C"/><use transform="matrix(0.060025163186771674,0,0,0.060025163186771674,15.546517265373863,0)" xlink:href="#D"/><use transform="matrix(0.060025163186771674,0,0,0.060025163186771674,22.689511684599694,0)" xlink:href="#E"/><use transform="matrix(0.060025163186771674,0,0,0.060025163186771674,34.69454432195403,0)" xlink:href="#F"/><use transform="matrix(0.060025163186771674,0,0,0.060025163186771674,47.84005505985702,0)" xlink:href="#D"/><use transform="matrix(0.060025163186771674,0,0,0.060025163186771674,54.98304947908285,0)" xlink:href="#E"/></g><path fill="#fff" d="M199 0l-22-63H83L61 0H9l90-248h61L250 0h-51zm-33-102l-36-108c-10 38-24 72-36 108h72" id="G"/><path fill="#fff" d="M135-194c53 0 70 44 70 98 0 56-19 98-73 100-31 1-45-17-59-34 3 33 2 69 2 105H25l-1-265h48c2 10 0 23 3 31 11-24 29-35 60-35zM114-30c33 0 39-31 40-66 0-38-9-64-40-64-56 0-55 130 0 130" id="H"/><path fill="#fff" d="M25 0v-261h50V0H25" id="I"/><path fill="#fff" d="M25-224v-37h50v37H25zM25 0v-190h50V0H25" id="J"/><path fill="#fff" d="M190-63c-7 42-38 67-86 67-59 0-84-38-90-98-12-110 154-137 174-36l-49 2c-2-19-15-32-35-32-30 0-35 28-38 64-6 74 65 87 74 30" id="K"/><path fill="#fff" d="M133-34C117-15 103 5 69 4 32 3 11-16 11-54c-1-60 55-63 116-61 1-26-3-47-28-47-18 1-26 9-28 27l-52-2c7-38 36-58 82-57s74 22 75 68l1 82c-1 14 12 18 25 15v27c-30 8-71 5-69-32zm-48 3c29 0 43-24 42-57-32 0-66-3-65 30 0 17 8 27 23 27" id="L"/><path fill="#fff" d="M115-3C79 11 28 4 28-45v-112H4v-33h27l15-45h31v45h36v33H77v99c-1 23 16 31 38 25v30" id="M"/><path fill="#fff" d="M128 0H69L1-190h53L99-40l48-150h52" id="N"/><path fill="#fff" d="M110-194c64 0 96 36 96 99 0 64-35 99-97 99-61 0-95-36-95-99 0-62 34-99 96-99zm-1 164c35 0 45-28 45-65 0-40-10-65-43-65-34 0-45 26-45 65 0 36 10 65 43 65" id="O"/><g id="b"><use transform="matrix(0.060025163186771674,0,0,0.060025163186771674,0,0)" xlink:href="#G"/><use transform="matrix(0.060025163186771674,0,0,0.060025163186771674,15.546517265373863,0)" xlink:href="#H"/><use transform="matrix(0.060025163186771674,0,0,0.060025163186771674,28.69202800327686,0)" xlink:href="#H"/><use transform="matrix(0.060025163186771674,0,0,0.060025163186771674,41.837538741179856,0)" xlink:href="#I"/><use transform="matrix(0.060025163186771674,0,0,0.060025163186771674,47.84005505985702,0)" xlink:href="#J"/><use transform="matrix(0.060025163186771674,0,0,0.060025163186771674,53.84257137853419,0)" xlink:href="#K"/><use transform="matrix(0.060025163186771674,0,0,0.060025163186771674,65.84760401588852,0)" xlink:href="#L"/><use transform="matrix(0.060025163186771674,0,0,0.060025163186771674,77.85263665324285,0)" xlink:href="#M"/><use transform="matrix(0.060025163186771674,0,0,0.060025163186771674,84.99563107246868,0)" xlink:href="#J"/><use transform="matrix(0.060025163186771674,0,0,0.060025163186771674,90.99814739114585,0)" xlink:href="#N"/><use transform="matrix(0.060025163186771674,0,0,0.060025163186771674,103.00318002850018,0)" xlink:href="#O"/></g><path fill="#fff" d="M275 0h-61l-44-196L126 0H64L0-248h53L97-49l45-199h58l43 199 44-199h52" id="P"/><path fill="#fff" d="M24 0v-248h195v40H76v63h132v40H76v65h150V0H24" id="Q"/><path fill="#fff" d="M182-130c37 4 62 22 62 59C244 23 116-4 24 0v-248c84 5 203-23 205 63 0 31-19 50-47 55zM76-148c40-3 101 13 101-30 0-44-60-28-101-31v61zm0 110c48-3 116 14 116-37 0-48-69-32-116-35v72" id="R"/><g id="c"><use transform="matrix(0.060025163186771674,0,0,0.060025163186771674,0,0)" xlink:href="#P"/><use transform="matrix(0.060025163186771674,0,0,0.060025163186771674,20.348530320315596,0)" xlink:href="#Q"/><use transform="matrix(0.060025163186771674,0,0,0.060025163186771674,34.7545694851408,0)" xlink:href="#R"/></g><path fill="#fff" d="M187 0l-14-72H61L19 0h-37l149-248h38L221 0h-34zm-19-99l-22-123L76-99h92" id="S"/><path fill="#fff" d="M103-194c29 0 47 14 56 36 2-11 5-23 8-32h30L160-5C157 61 82 97 21 62 9 55 4 45 1 30l28-7c7 42 83 31 92-3 4-16 9-38 13-55-13 20-29 36-62 36-40 0-60-25-60-64 0-71 23-131 91-131zm4 24c-53 0-58 54-61 104-2 27 10 44 36 44 49 0 65-50 67-102 1-29-15-46-42-46" id="T"/><path fill="#fff" d="M50-231l6-30h32l-6 30H50zM6 0l37-190h31L37 0H6" id="U"/><path fill="#fff" d="M67 3c-93-2-31-127-26-193h32L48-50c-3 39 53 32 70 12 30-34 30-101 43-152h32L157 0h-30c1-10 6-24 4-33-14 20-29 37-64 36" id="V"/><path fill="#fff" d="M67-158c22-48 132-52 116 29L158 0h-32l25-140c3-38-53-32-70-12C52-117 51-52 38 0H6l36-190h30" id="W"/><path fill="#fff" d="M111-194c62-3 86 47 72 106H45c-7 38 6 69 45 68 27-1 43-14 53-32l24 11C152-15 129 4 87 4 38 3 12-23 12-71c0-70 32-119 99-123zm44 81c14-66-71-72-95-28-4 8-8 17-11 28h106" id="X"/><g id="d"><use transform="matrix(0.04938271604938272,0,0,0.04938271604938272,0,0)" xlink:href="#S"/><use transform="matrix(0.04938271604938272,0,0,0.04938271604938272,11.851851851851853,0)" xlink:href="#T"/><use transform="matrix(0.04938271604938272,0,0,0.04938271604938272,21.7283950617284,0)" xlink:href="#T"/><use transform="matrix(0.04938271604938272,0,0,0.04938271604938272,31.60493827160494,0)" xlink:href="#U"/><use transform="matrix(0.04938271604938272,0,0,0.04938271604938272,35.50617283950618,0)" xlink:href="#V"/><use transform="matrix(0.04938271604938272,0,0,0.04938271604938272,45.38271604938272,0)" xlink:href="#W"/><use transform="matrix(0.04938271604938272,0,0,0.04938271604938272,55.25925925925927,0)" xlink:href="#T"/><use transform="matrix(0.04938271604938272,0,0,0.04938271604938272,65.13580246913581,0)" xlink:href="#X"/></g><path fill="#fff" d="M165-48c-4 18 1 34 23 27l-3 20c-29 8-62 0-52-35h-2C116-14 99 4 63 4 30 4 8-16 8-49c0-68 71-67 138-67 10-26 0-56-31-54-26 1-42 9-47 31l-32-5c8-67 160-71 144 15-5 28-9 54-15 81zM42-50c3 52 80 24 89-6 7-12 7-24 11-38-47 1-103-4-100 44" id="Y"/><path fill="#fff" d="M6 0l50-261h32L37 0H6" id="Z"/><g id="e"><use transform="matrix(0.04938271604938272,0,0,0.04938271604938272,0,0)" xlink:href="#Y"/><use transform="matrix(0.04938271604938272,0,0,0.04938271604938272,9.876543209876544,0)" xlink:href="#Z"/></g><path fill="#fff" d="M30-147c31-64 166-65 159 27C183-49 158 1 86 4 9 8 1-88 30-147zM88-20c53 0 68-48 68-100 0-31-11-51-44-50-52 1-68 46-68 97 0 32 13 53 44 53" id="aa"/><g id="f"><use transform="matrix(0.04938271604938272,0,0,0.04938271604938272,0,0)" xlink:href="#W"/><use transform="matrix(0.04938271604938272,0,0,0.04938271604938272,9.876543209876544,0)" xlink:href="#aa"/><use transform="matrix(0.04938271604938272,0,0,0.04938271604938272,19.75308641975309,0)" xlink:href="#Z"/><use transform="matrix(0.04938271604938272,0,0,0.04938271604938272,23.654320987654323,0)" xlink:href="#X"/><use transform="matrix(0.04938271604938272,0,0,0.04938271604938272,33.53086419753087,0)" xlink:href="#T"/><use transform="matrix(0.04938271604938272,0,0,0.04938271604938272,43.40740740740741,0)" xlink:href="#T"/><use transform="matrix(0.04938271604938272,0,0,0.04938271604938272,53.283950617283956,0)" xlink:href="#U"/><use transform="matrix(0.04938271604938272,0,0,0.04938271604938272,57.18518518518519,0)" xlink:href="#aa"/></g><path fill="#fff" d="M60-170H36l11-78h32" id="ab"/><path fill="#fff" d="M51-54c-9 22 5 41 31 30L79-1C43 14 10-4 19-52l22-115H19l5-23h22l19-43h21l-9 43h35l-4 23H73" id="ac"/><g id="g"><use transform="matrix(0.04938271604938272,0,0,0.04938271604938272,0,0)" xlink:href="#Z"/><use transform="matrix(0.04938271604938272,0,0,0.04938271604938272,3.901234567901235,0)" xlink:href="#ab"/><use transform="matrix(0.04938271604938272,0,0,0.04938271604938272,7.2592592592592595,0)" xlink:href="#aa"/><use transform="matrix(0.04938271604938272,0,0,0.04938271604938272,17.135802469135804,0)" xlink:href="#T"/><use transform="matrix(0.04938271604938272,0,0,0.04938271604938272,27.01234567901235,0)" xlink:href="#T"/><use transform="matrix(0.04938271604938272,0,0,0.04938271604938272,36.88888888888889,0)" xlink:href="#X"/><use transform="matrix(0.04938271604938272,0,0,0.04938271604938272,46.76543209876544,0)" xlink:href="#ac"/><use transform="matrix(0.04938271604938272,0,0,0.04938271604938272,51.70370370370371,0)" xlink:href="#ac"/><use transform="matrix(0.04938271604938272,0,0,0.04938271604938272,56.64197530864198,0)" xlink:href="#aa"/></g><path fill="#fff" d="M137 0h-34L2-248h35l83 218 83-218h36" id="ad"/><path fill="#fff" d="M24-231v-30h32v30H24zM24 0v-190h32V0H24" id="ae"/><path fill="#fff" d="M135-143c-3-34-86-38-87 0 15 53 115 12 119 90S17 21 10-45l28-5c4 36 97 45 98 0-10-56-113-15-118-90-4-57 82-63 122-42 12 7 21 19 24 35" id="af"/><path fill="#fff" d="M84 4C-5 8 30-112 23-190h32v120c0 31 7 50 39 49 72-2 45-101 50-169h31l1 190h-30c-1-10 1-25-2-33-11 22-28 36-60 37" id="ag"/><path fill="#fff" d="M141-36C126-15 110 5 73 4 37 3 15-17 15-53c-1-64 63-63 125-63 3-35-9-54-41-54-24 1-41 7-42 31l-33-3c5-37 33-52 76-52 45 0 72 20 72 64v82c-1 20 7 32 28 27v20c-31 9-61-2-59-35zM48-53c0 20 12 33 32 33 41-3 63-29 60-74-43 2-92-5-92 41" id="ah"/><path fill="#fff" d="M24 0v-261h32V0H24" id="ai"/><path fill="#fff" d="M9 0v-24l116-142H16v-24h144v24L44-24h123V0H9" id="aj"/><g id="h"><use transform="matrix(0.04938271604938272,0,0,0.04938271604938272,0,0)" xlink:href="#ad"/><use transform="matrix(0.04938271604938272,0,0,0.04938271604938272,11.506172839506174,0)" xlink:href="#ae"/><use transform="matrix(0.04938271604938272,0,0,0.04938271604938272,15.407407407407408,0)" xlink:href="#af"/><use transform="matrix(0.04938271604938272,0,0,0.04938271604938272,24.296296296296298,0)" xlink:href="#ag"/><use transform="matrix(0.04938271604938272,0,0,0.04938271604938272,34.17283950617284,0)" xlink:href="#ah"/><use transform="matrix(0.04938271604938272,0,0,0.04938271604938272,44.04938271604939,0)" xlink:href="#ai"/><use transform="matrix(0.04938271604938272,0,0,0.04938271604938272,47.95061728395062,0)" xlink:href="#ae"/><use transform="matrix(0.04938271604938272,0,0,0.04938271604938272,51.851851851851855,0)" xlink:href="#aj"/><use transform="matrix(0.04938271604938272,0,0,0.04938271604938272,60.74074074074075,0)" xlink:href="#aj"/><use transform="matrix(0.04938271604938272,0,0,0.04938271604938272,69.62962962962963,0)" xlink:href="#ah"/></g><path fill="#fff" d="M59-47c-2 24 18 29 38 22v24C64 9 27 4 27-40v-127H5v-23h24l9-43h21v43h35v23H59v120" id="ak"/><g id="i"><use transform="matrix(0.04938271604938272,0,0,0.04938271604938272,0,0)" xlink:href="#ai"/><use transform="matrix(0.04938271604938272,0,0,0.04938271604938272,3.901234567901235,0)" xlink:href="#ae"/><use transform="matrix(0.04938271604938272,0,0,0.04938271604938272,7.80246913580247,0)" xlink:href="#af"/><use transform="matrix(0.04938271604938272,0,0,0.04938271604938272,16.69135802469136,0)" xlink:href="#ak"/><use transform="matrix(0.04938271604938272,0,0,0.04938271604938272,21.629629629629633,0)" xlink:href="#ah"/></g><path fill="#fff" d="M117-194c89-4 53 116 60 194h-32v-121c0-31-8-49-39-48C34-167 62-67 57 0H25l-1-190h30c1 10-1 24 2 32 11-22 29-35 61-36" id="al"/><path fill="#fff" d="M100-194c62-1 85 37 85 99 1 63-27 99-86 99S16-35 15-95c0-66 28-99 85-99zM99-20c44 1 53-31 53-75 0-43-8-75-51-75s-53 32-53 75 10 74 51 75" id="am"/><path fill="#fff" d="M100-194c63 0 86 42 84 106H49c0 40 14 67 53 68 26 1 43-12 49-29l28 8c-11 28-37 45-77 45C44 4 14-33 15-96c1-61 26-98 85-98zm52 81c6-60-76-77-97-28-3 7-6 17-6 28h103" id="an"/><path fill="#fff" d="M177-190C167-65 218 103 67 71c-23-6-38-20-44-43l32-5c15 47 100 32 89-28v-30C133-14 115 1 83 1 29 1 15-40 15-95c0-56 16-97 71-98 29-1 48 16 59 35 1-10 0-23 2-32h30zM94-22c36 0 50-32 50-73 0-42-14-75-50-75-39 0-46 34-46 75s6 73 46 73" id="ao"/><g id="j"><use transform="matrix(0.04938271604938272,0,0,0.04938271604938272,0,0)" xlink:href="#al"/><use transform="matrix(0.04938271604938272,0,0,0.04938271604938272,9.876543209876544,0)" xlink:href="#am"/><use transform="matrix(0.04938271604938272,0,0,0.04938271604938272,19.75308641975309,0)" xlink:href="#ai"/><use transform="matrix(0.04938271604938272,0,0,0.04938271604938272,23.654320987654323,0)" xlink:href="#an"/><use transform="matrix(0.04938271604938272,0,0,0.04938271604938272,33.53086419753087,0)" xlink:href="#ao"/><use transform="matrix(0.04938271604938272,0,0,0.04938271604938272,43.40740740740741,0)" xlink:href="#ao"/><use transform="matrix(0.04938271604938272,0,0,0.04938271604938272,53.283950617283956,0)" xlink:href="#ae"/><use transform="matrix(0.04938271604938272,0,0,0.04938271604938272,57.18518518518519,0)" xlink:href="#am"/></g><path fill="#a9afb8" d="M175 0L67-191c6 58 2 128 3 191H24v-248h59L193-55c-6-58-2-129-3-193h46V0h-61" id="ap"/><path fill="#a9afb8" d="M110-194c64 0 96 36 96 99 0 64-35 99-97 99-61 0-95-36-95-99 0-62 34-99 96-99zm-1 164c35 0 45-28 45-65 0-40-10-65-43-65-34 0-45 26-45 65 0 36 10 65 43 65" id="aq"/><path fill="#a9afb8" d="M25 0v-261h50V0H25" id="ar"/><path fill="#a9afb8" d="M185-48c-13 30-37 53-82 52C43 2 14-33 14-96s30-98 90-98c62 0 83 45 84 108H66c0 31 8 55 39 56 18 0 30-7 34-22zm-45-69c5-46-57-63-70-21-2 6-4 13-4 21h74" id="as"/><path fill="#a9afb8" d="M195-6C206 82 75 100 31 46c-4-6-6-13-8-21l49-6c3 16 16 24 34 25 40 0 42-37 40-79-11 22-30 35-61 35-53 0-70-43-70-97 0-56 18-96 73-97 30 0 46 14 59 34l2-30h47zm-90-29c32 0 41-27 41-63 0-35-9-62-40-62-32 0-39 29-40 63 0 36 9 62 39 62" id="at"/><path fill="#a9afb8" d="M25-224v-37h50v37H25zM25 0v-190h50V0H25" id="au"/><path fill="#a9afb8" d="M133-34C117-15 103 5 69 4 32 3 11-16 11-54c-1-60 55-63 116-61 1-26-3-47-28-47-18 1-26 9-28 27l-52-2c7-38 36-58 82-57s74 22 75 68l1 82c-1 14 12 18 25 15v27c-30 8-71 5-69-32zm-48 3c29 0 43-24 42-57-32 0-66-3-65 30 0 17 8 27 23 27" id="av"/><g id="k"><use transform="matrix(0.0728395061728395,0,0,0.0728395061728395,0,0)" xlink:href="#ap"/><use transform="matrix(0.0728395061728395,0,0,0.0728395061728395,18.86543209876543,0)" xlink:href="#aq"/><use transform="matrix(0.0728395061728395,0,0,0.0728395061728395,34.81728395061728,0)" xlink:href="#ar"/><use transform="matrix(0.0728395061728395,0,0,0.0728395061728395,42.10123456790124,0)" xlink:href="#as"/><use transform="matrix(0.0728395061728395,0,0,0.0728395061728395,56.66913580246913,0)" xlink:href="#at"/><use transform="matrix(0.0728395061728395,0,0,0.0728395061728395,72.62098765432098,0)" xlink:href="#at"/><use transform="matrix(0.0728395061728395,0,0,0.0728395061728395,88.57283950617284,0)" xlink:href="#au"/><use transform="matrix(0.0728395061728395,0,0,0.0728395061728395,95.85679012345679,0)" xlink:href="#av"/></g><path fill="#a9afb8" d="M135-150c-39-12-60 13-60 57V0H25l-1-190h47c2 13-1 29 3 40 6-28 27-53 61-41v41" id="aw"/><path fill="#a9afb8" d="M115-3C79 11 28 4 28-45v-112H4v-33h27l15-45h31v45h36v33H77v99c-1 23 16 31 38 25v30" id="ax"/><path fill="#a9afb8" d="M190-63c-7 42-38 67-86 67-59 0-84-38-90-98-12-110 154-137 174-36l-49 2c-2-19-15-32-35-32-30 0-35 28-38 64-6 74 65 87 74 30" id="ay"/><g id="l"><use transform="matrix(0.0728395061728395,0,0,0.0728395061728395,0,0)" xlink:href="#av"/><use transform="matrix(0.0728395061728395,0,0,0.0728395061728395,14.5679012345679,0)" xlink:href="#aw"/><use transform="matrix(0.0728395061728395,0,0,0.0728395061728395,24.76543209876543,0)" xlink:href="#ax"/><use transform="matrix(0.0728395061728395,0,0,0.0728395061728395,33.43333333333333,0)" xlink:href="#au"/><use transform="matrix(0.0728395061728395,0,0,0.0728395061728395,40.717283950617286,0)" xlink:href="#ay"/><use transform="matrix(0.0728395061728395,0,0,0.0728395061728395,55.28518518518518,0)" xlink:href="#aq"/><use transform="matrix(0.0728395061728395,0,0,0.0728395061728395,71.23703703703703,0)" xlink:href="#ar"/><use transform="matrix(0.0728395061728395,0,0,0.0728395061728395,78.52098765432098,0)" xlink:href="#aq"/></g><path fill="#fff" d="M63-220v92h138v28H63V0H30v-248h175v28H63" id="az"/><g id="m"><use transform="matrix(0.04938271604938272,0,0,0.04938271604938272,0,0)" xlink:href="#az"/><use transform="matrix(0.04938271604938272,0,0,0.04938271604938272,10.814814814814815,0)" xlink:href="#ae"/><use transform="matrix(0.04938271604938272,0,0,0.04938271604938272,14.71604938271605,0)" xlink:href="#al"/><use transform="matrix(0.04938271604938272,0,0,0.04938271604938272,24.592592592592595,0)" xlink:href="#ah"/><use transform="matrix(0.04938271604938272,0,0,0.04938271604938272,34.46913580246914,0)" xlink:href="#ai"/><use transform="matrix(0.04938271604938272,0,0,0.04938271604938272,38.370370370370374,0)" xlink:href="#ae"/><use transform="matrix(0.04938271604938272,0,0,0.04938271604938272,42.27160493827161,0)" xlink:href="#aj"/><use transform="matrix(0.04938271604938272,0,0,0.04938271604938272,51.1604938271605,0)" xlink:href="#aj"/><use transform="matrix(0.04938271604938272,0,0,0.04938271604938272,60.04938271604938,0)" xlink:href="#ah"/></g><g id="n"><use transform="matrix(0.04938271604938272,0,0,0.04938271604938272,0,0)" xlink:href="#ae"/><use transform="matrix(0.04938271604938272,0,0,0.04938271604938272,3.901234567901235,0)" xlink:href="#ai"/></g><path fill="#fff" d="M11 0l48-248h34L50-27h125l-5 27H11" id="aA"/><g id="o"><use transform="matrix(0.04938271604938272,0,0,0.04938271604938272,0,0)" xlink:href="#aA"/><use transform="matrix(0.04938271604938272,0,0,0.04938271604938272,9.876543209876544,0)" xlink:href="#X"/><use transform="matrix(0.04938271604938272,0,0,0.04938271604938272,19.75308641975309,0)" xlink:href="#T"/><use transform="matrix(0.04938271604938272,0,0,0.04938271604938272,29.629629629629633,0)" xlink:href="#T"/><use transform="matrix(0.04938271604938272,0,0,0.04938271604938272,39.50617283950618,0)" xlink:href="#X"/></g><path fill="#fff" d="M55-144c13 50 104 24 104 88C159 21 15 23 1-39l26-10c6 40 102 42 102-4-13-50-104-23-104-87 0-71 143-71 148-8l-29 4c-5-35-85-37-89 0" id="aB"/><g id="p"><use transform="matrix(0.04938271604938272,0,0,0.04938271604938272,0,0)" xlink:href="#Z"/><use transform="matrix(0.04938271604938272,0,0,0.04938271604938272,3.901234567901235,0)" xlink:href="#U"/><use transform="matrix(0.04938271604938272,0,0,0.04938271604938272,7.80246913580247,0)" xlink:href="#aB"/><use transform="matrix(0.04938271604938272,0,0,0.04938271604938272,16.69135802469136,0)" xlink:href="#ac"/><use transform="matrix(0.04938271604938272,0,0,0.04938271604938272,21.629629629629633,0)" xlink:href="#Y"/></g><g id="q"><use transform="matrix(0.04938271604938272,0,0,0.04938271604938272,0,0)" xlink:href="#W"/><use transform="matrix(0.04938271604938272,0,0,0.04938271604938272,9.876543209876544,0)" xlink:href="#aa"/><use transform="matrix(0.04938271604938272,0,0,0.04938271604938272,19.75308641975309,0)" xlink:href="#Z"/><use transform="matrix(0.04938271604938272,0,0,0.04938271604938272,23.654320987654323,0)" xlink:href="#X"/><use transform="matrix(0.04938271604938272,0,0,0.04938271604938272,33.53086419753087,0)" xlink:href="#T"/><use transform="matrix(0.04938271604938272,0,0,0.04938271604938272,43.40740740740741,0)" xlink:href="#T"/><use transform="matrix(0.04938271604938272,0,0,0.04938271604938272,53.283950617283956,0)" xlink:href="#U"/><use transform="matrix(0.04938271604938272,0,0,0.04938271604938272,57.18518518518519,0)" xlink:href="#aa"/></g><path fill="#fff" d="M194-120c59 52 2 134-86 124-53-6-90-18-98-63l31-7c8 30 29 43 70 43 46 0 84-17 71-62-32-43-135-20-137-98-3-89 178-90 191-16l-30 9c-8-48-127-53-127 5 0 53 81 35 115 65" id="aC"/><path fill="#fff" d="M89 0H52L20-190h33L74-25l89-165h34" id="aD"/><g id="r"><use transform="matrix(0.04938271604938272,0,0,0.04938271604938272,0,0)" xlink:href="#aC"/><use transform="matrix(0.04938271604938272,0,0,0.04938271604938272,11.851851851851853,0)" xlink:href="#Y"/><use transform="matrix(0.04938271604938272,0,0,0.04938271604938272,21.7283950617284,0)" xlink:href="#Z"/><use transform="matrix(0.04938271604938272,0,0,0.04938271604938272,25.629629629629633,0)" xlink:href="#aD"/><use transform="matrix(0.04938271604938272,0,0,0.04938271604938272,34.51851851851852,0)" xlink:href="#Y"/></g><g id="s"><use transform="matrix(0.04938271604938272,0,0,0.04938271604938272,0,0)" xlink:href="#W"/><use transform="matrix(0.04938271604938272,0,0,0.04938271604938272,9.876543209876544,0)" xlink:href="#aa"/><use transform="matrix(0.04938271604938272,0,0,0.04938271604938272,19.75308641975309,0)" xlink:href="#Z"/><use transform="matrix(0.04938271604938272,0,0,0.04938271604938272,23.654320987654323,0)" xlink:href="#X"/><use transform="matrix(0.04938271604938272,0,0,0.04938271604938272,33.53086419753087,0)" xlink:href="#T"/><use transform="matrix(0.04938271604938272,0,0,0.04938271604938272,43.40740740740741,0)" xlink:href="#T"/><use transform="matrix(0.04938271604938272,0,0,0.04938271604938272,53.283950617283956,0)" xlink:href="#U"/><use transform="matrix(0.04938271604938272,0,0,0.04938271604938272,57.18518518518519,0)" xlink:href="#aa"/></g><g id="t"><use transform="matrix(0.04938271604938272,0,0,0.04938271604938272,0,0)" xlink:href="#W"/><use transform="matrix(0.04938271604938272,0,0,0.04938271604938272,9.876543209876544,0)" xlink:href="#X"/><use transform="matrix(0.04938271604938272,0,0,0.04938271604938272,19.75308641975309,0)" xlink:href="#Z"/></g><path fill="#fff" d="M248-139C247-14 144 9 11 0l48-248c105-6 190 8 189 109zm-34 0c1-70-52-87-126-82L50-27c98 7 163-21 164-112" id="aE"/><path fill="#fff" d="M219-77C219 17 104-2 11 0l48-248c73 2 169-15 169 57 0 38-24 54-60 60 29 5 51 21 51 54zm-26-111c0-44-62-31-105-33l-16 79c55 0 121 9 121-46zm-7 110c-1-49-69-36-119-38L50-27c61-1 137 12 136-51" id="aF"/><g id="u"><use transform="matrix(0.04938271604938272,0,0,0.04938271604938272,0,0)" xlink:href="#aE"/><use transform="matrix(0.04938271604938272,0,0,0.04938271604938272,12.790123456790125,0)" xlink:href="#aF"/></g><path fill="#fff" d="M151-220L108 0H75l42-220H32l6-28h203l-5 28h-85" id="aG"/><path fill="#fff" d="M66-151c12-25 30-51 66-40l-6 26C45-176 58-65 38 0H6l36-190h30" id="aH"/><g id="v"><use transform="matrix(0.04938271604938272,0,0,0.04938271604938272,0,0)" xlink:href="#aG"/><use transform="matrix(0.04938271604938272,0,0,0.04938271604938272,9.481481481481481,0)" xlink:href="#aH"/><use transform="matrix(0.04938271604938272,0,0,0.04938271604938272,15.358024691358025,0)" xlink:href="#aa"/><use transform="matrix(0.04938271604938272,0,0,0.04938271604938272,25.23456790123457,0)" xlink:href="#aD"/><use transform="matrix(0.04938271604938272,0,0,0.04938271604938272,34.123456790123456,0)" xlink:href="#Y"/></g><path fill="#fff" d="M44-68c0 29 11 47 38 47 30 0 42-19 51-41l28 9C148-21 126 4 82 4 31 4 10-29 12-85c3-77 74-140 146-93 12 8 15 23 18 40l-31 5c-1-22-13-36-36-36-52 0-65 49-65 101" id="aI"/><g id="w"><use transform="matrix(0.04938271604938272,0,0,0.04938271604938272,0,0)" xlink:href="#Z"/><use transform="matrix(0.04938271604938272,0,0,0.04938271604938272,3.901234567901235,0)" xlink:href="#ab"/><use transform="matrix(0.04938271604938272,0,0,0.04938271604938272,7.2592592592592595,0)" xlink:href="#Y"/><use transform="matrix(0.04938271604938272,0,0,0.04938271604938272,17.135802469135804,0)" xlink:href="#aH"/><use transform="matrix(0.04938271604938272,0,0,0.04938271604938272,23.01234567901235,0)" xlink:href="#ac"/><use transform="matrix(0.04938271604938272,0,0,0.04938271604938272,27.95061728395062,0)" xlink:href="#U"/><use transform="matrix(0.04938271604938272,0,0,0.04938271604938272,31.851851851851855,0)" xlink:href="#aI"/><use transform="matrix(0.04938271604938272,0,0,0.04938271604938272,40.74074074074075,0)" xlink:href="#aa"/><use transform="matrix(0.04938271604938272,0,0,0.04938271604938272,50.617283950617285,0)" xlink:href="#Z"/><use transform="matrix(0.04938271604938272,0,0,0.04938271604938272,54.518518518518526,0)" xlink:href="#aa"/></g><g id="x"><use transform="matrix(0.04938271604938272,0,0,0.04938271604938272,0,0)" xlink:href="#Y"/><use transform="matrix(0.04938271604938272,0,0,0.04938271604938272,9.876543209876544,0)" xlink:href="#aB"/><use transform="matrix(0.04938271604938272,0,0,0.04938271604938272,18.765432098765434,0)" xlink:href="#aB"/><use transform="matrix(0.04938271604938272,0,0,0.04938271604938272,27.654320987654323,0)" xlink:href="#X"/><use transform="matrix(0.04938271604938272,0,0,0.04938271604938272,37.53086419753087,0)" xlink:href="#T"/><use transform="matrix(0.04938271604938272,0,0,0.04938271604938272,47.40740740740741,0)" xlink:href="#W"/><use transform="matrix(0.04938271604938272,0,0,0.04938271604938272,57.283950617283956,0)" xlink:href="#Y"/><use transform="matrix(0.04938271604938272,0,0,0.04938271604938272,67.16049382716051,0)" xlink:href="#ac"/><use transform="matrix(0.04938271604938272,0,0,0.04938271604938272,72.09876543209879,0)" xlink:href="#aa"/></g><g id="y"><use transform="matrix(0.04938271604938272,0,0,0.04938271604938272,0,0)" xlink:href="#Y"/><use transform="matrix(0.04938271604938272,0,0,0.04938271604938272,9.876543209876544,0)" xlink:href="#Z"/></g><path fill="#fff" d="M24-61C-1-165 59-251 163-251c67 1 105 36 105 101 0 88-46 140-124 152 2 33 24 47 60 39l-3 23c-50 15-89-11-89-61-46-3-79-26-88-64zm210-73c6-55-18-91-72-90-77 1-111 51-111 125 0 49 24 75 73 75 72 0 103-45 110-110" id="aJ"/><path fill="#fff" d="M249-183c0 48-29 72-75 77L221 0h-36l-43-103H65L45 0H11l48-248c83 2 190-17 190 65zm-34 3c0-55-74-39-127-41l-18 92c63-1 145 13 145-51" id="aK"/><g id="z"><use transform="matrix(0.04938271604938272,0,0,0.04938271604938272,0,0)" xlink:href="#aJ"/><use transform="matrix(0.04938271604938272,0,0,0.04938271604938272,13.827160493827162,0)" xlink:href="#aK"/></g><g id="A"><use transform="matrix(0.04938271604938272,0,0,0.04938271604938272,0,0)" xlink:href="#aC"/><use transform="matrix(0.04938271604938272,0,0,0.04938271604938272,11.851851851851853,0)" xlink:href="#aI"/><use transform="matrix(0.04938271604938272,0,0,0.04938271604938272,20.74074074074074,0)" xlink:href="#Y"/><use transform="matrix(0.04938271604938272,0,0,0.04938271604938272,30.617283950617285,0)" xlink:href="#W"/><use transform="matrix(0.04938271604938272,0,0,0.04938271604938272,40.49382716049383,0)" xlink:href="#aB"/><use transform="matrix(0.04938271604938272,0,0,0.04938271604938272,49.38271604938272,0)" xlink:href="#U"/><use transform="matrix(0.04938271604938272,0,0,0.04938271604938272,53.283950617283956,0)" xlink:href="#aa"/><use transform="matrix(0.04938271604938272,0,0,0.04938271604938272,63.1604938271605,0)" xlink:href="#W"/><use transform="matrix(0.04938271604938272,0,0,0.04938271604938272,73.03703703703704,0)" xlink:href="#Y"/></g><path fill="#fff" d="M133-28C103 26-5 8 13-77c13-62 24-115 90-117 29-1 46 15 56 35l19-102h32L160 0h-30zM45-64c-2 27 10 43 35 43 54-1 69-50 69-103 0-29-15-46-42-46-53-1-58 58-62 106" id="aL"/><g id="B"><use transform="matrix(0.04938271604938272,0,0,0.04938271604938272,0,0)" xlink:href="#aI"/><use transform="matrix(0.04938271604938272,0,0,0.04938271604938272,8.88888888888889,0)" xlink:href="#aa"/><use transform="matrix(0.04938271604938272,0,0,0.04938271604938272,18.765432098765434,0)" xlink:href="#aL"/><use transform="matrix(0.04938271604938272,0,0,0.04938271604938272,28.641975308641978,0)" xlink:href="#U"/><use transform="matrix(0.04938271604938272,0,0,0.04938271604938272,32.543209876543216,0)" xlink:href="#aI"/><use transform="matrix(0.04938271604938272,0,0,0.04938271604938272,41.4320987654321,0)" xlink:href="#X"/></g></defs></g></svg>